name analog
datacolumns 19
datarows 23
range 0.41600000000000004 0.427
endheader
time	ground_force_vx	ground_force_vy	ground_force_vz	ground_force_px	ground_force_py	ground_force_pz	l_ground_force_vx	l_ground_force_vy	l_ground_force_vz	l_ground_force_px	l_ground_force_py	l_ground_force_pz	ground_torque_x	ground_torque_y	ground_torque_z	l_ground_torque_x	l_ground_torque_y	l_ground_torque_z
0.41600000000000004	-0.0	-0.0	-0.0	2.584303140640259	14.886643409729004	-382.1296081542969	-0.1790216267108917	-15.096635818481444	-401.4739685058594	-0.0	-0.0	-0.0	-0.0	-0.0	-0.0	81992.515625	-15377.5400390625	-6441.59375
0.4165	-0.0	-0.0	-0.0	2.3266937732696533	15.239495277404783	-381.80181884765625	-0.264563500881195	-14.66452407836914	-399.4418029785156	-0.0	-0.0	-0.0	-0.0	-0.0	-0.0	81902.296875	-15382.8681640625	-6383.25537109375
0.417	-0.0	-0.0	-0.0	2.5829944610595703	15.330429077148438	-382.1276550292969	-0.0857331231236457	-14.746756553649902	-399.7551879882813	-0.0	-0.0	-0.0	-0.0	-0.0	-0.0	82102.7890625	-15377.0146484375	-6441.40087890625
0.4175	-0.0	-0.0	-0.0	2.4086837768554688	15.600130081176758	-381.4404296875	0.1759837716817855	-14.830885887145996	-399.7955932617188	-0.0	-0.0	-0.0	-0.0	-0.0	-0.0	82104.265625	-15305.302734375	-6411.07421875
0.418	-0.0	-0.0	-0.0	2.406613111495972	15.41611099243164	-380.3830261230469	-0.0941419601440429	-14.309465408325195	-399.7679443359375	-0.0	-0.0	-0.0	-0.0	-0.0	-0.0	81816.5703125	-15203.849609375	-6381.92431640625
0.4185	-0.0	-0.0	-0.0	2.762232542037964	15.59584617614746	-383.8753356933594	-0.7057071924209595	-14.57043743133545	-398.7572326660156	-0.0	-0.0	-0.0	-0.0	-0.0	-0.0	82087.3984375	-15464.50390625	-6527.63037109375
0.419	-0.0	-0.0	-0.0	2.050626039505005	15.599035263061523	-382.493896484375	-0.709686279296875	-14.482215881347656	-397.3546142578125	-0.0	-0.0	-0.0	-0.0	-0.0	-0.0	81760.1640625	-15233.4267578125	-6442.5595703125
0.4195	-0.0	-0.0	-0.0	1.7847375869750977	16.21804428100586	-381.4364013671875	-0.7983970642089844	-14.9227933883667	-397.67431640625	-0.0	-0.0	-0.0	-0.0	-0.0	-0.0	81650.703125	-14895.7529296875	-6559.71142578125
0.42	-0.0	-0.0	-0.0	1.8739155530929563	15.421042442321776	-381.7738342285156	-1.323679804801941	-14.481281280517578	-397.339111328125	-0.0	-0.0	-0.0	-0.0	-0.0	-0.0	81234.2265625	-14806.9501953125	-6531.09765625
0.4205	-0.0	-0.0	-0.0	2.318081855773926	15.333672523498535	-380.0289611816406	-1.3295289278030396	-15.004535675048828	-397.9927062988281	-0.0	-0.0	-0.0	-0.0	-0.0	-0.0	81259.25	-14976.404296875	-6736.60009765625
0.421	-0.0	-0.0	-0.0	2.052225112915039	16.218286514282227	-380.7234191894531	-1.2451094388961792	-13.784472465515137	-395.2479248046875	-0.0	-0.0	-0.0	-0.0	-0.0	-0.0	81188.140625	-14627.857421875	-6708.4599609375
0.4215	-0.0	-0.0	-0.0	2.496565341949463	15.242626190185549	-381.43170166015625	-1.5977962017059326	-14.129474639892578	-395.9300537109375	-0.0	-0.0	-0.0	-0.0	-0.0	-0.0	81406.515625	-14589.013671875	-6798.79541015625
0.422	-0.0	-0.0	-0.0	2.6755599975585938	15.062786102294922	-381.4373168945313	-1.5136154890060425	-14.571242332458496	-399.0730590820313	-0.0	-0.0	-0.0	-0.0	-0.0	-0.0	81565.1484375	-14469.634765625	-6739.439453125
0.4225	-0.0	-0.0	-0.0	2.9454896450042725	15.15216827392578	-381.7884216308594	-2.1281681060791016	-14.662286758422852	-400.1067199707031	-0.0	-0.0	-0.0	-0.0	-0.0	-0.0	82032.34375	-14734.79296875	-6856.7373046875
0.423	-0.0	-0.0	-0.0	2.7656948566436768	14.796829223632812	-380.72796630859375	-2.305640697479248	-14.752229690551758	-401.5177307128906	-0.0	-0.0	-0.0	-0.0	-0.0	-0.0	82300.515625	-14975.76953125	-6887.72509765625
0.4235	-0.0	-0.0	-0.0	3.0334231853485107	14.707402229309082	-379.3183898925781	-2.2177696228027344	-15.54386043548584	-403.26116943359375	-0.0	-0.0	-0.0	-0.0	-0.0	-0.0	82412.8671875	-14854.62109375	-6799.60693359375
0.424	-0.0	-0.0	-0.0	3.1223678588867188	15.419330596923828	-381.4347839355469	-2.3079373836517334	-15.63221263885498	-403.6106567382813	-0.0	-0.0	-0.0	-0.0	-0.0	-0.0	82684.796875	-14976.7978515625	-6945.77880859375
0.4245	-0.0	-0.0	-0.0	2.943972587585449	14.4391508102417	-379.6689758300781	-2.661323547363281	-15.630855560302734	-406.7506713867188	-0.0	-0.0	-0.0	-0.0	-0.0	-0.0	82948.859375	-15224.966796875	-7036.00732421875
0.425	-0.0	-0.0	-0.0	3.1223132610321045	15.062929153442385	-380.0205383300781	-2.8387451171875	-15.369816780090332	-405.0231628417969	-0.0	-0.0	-0.0	-0.0	-0.0	-0.0	83197.265625	-15119.0810546875	-7094.59619140625
0.4255	-0.0	-0.0	-0.0	2.943416118621826	15.419347763061523	-381.4355773925781	-3.103745222091675	-15.371355056762695	-406.748291015625	-0.0	-0.0	-0.0	-0.0	-0.0	-0.0	83262.0625	-15191.974609375	-6948.25390625
0.426	-0.0	-0.0	-0.0	2.7655258178710938	15.151982307434082	-382.14068603515625	-3.10439133644104	-16.073577880859375	-405.3669738769531	-0.0	-0.0	-0.0	-0.0	-0.0	-0.0	83039.8125	-14960.1484375	-6918.66162109375
0.4265	-0.0	-0.0	-0.0	2.497457504272461	15.063037872314451	-383.5516662597656	-3.2827534675598145	-15.632938385009766	-403.9720153808594	-0.0	-0.0	-0.0	-0.0	-0.0	-0.0	82813.953125	-14738.9111328125	-6948.6025390625
0.427	-0.0	-0.0	-0.0	2.231262683868408	15.508190155029297	-384.9591979980469	-3.460566759109497	-15.720417976379396	-404.3192443847656	-0.0	-0.0	-0.0	-0.0	-0.0	-0.0	82950.8203125	-14805.9541015625	-6829.60791015625
